<svg xmlns="http://www.w3.org/2000/svg" xmlns:xlink="http://www.w3.org/1999/xlink" width="1366" height="373" viewBox="0 0 1366 373">
    <defs>
        <path id="a" d="M0 0h1366v373H0z"/>
    </defs>
    <g fill="none" fill-rule="evenodd">
        <mask id="b" fill="#fff">
            <use xlink:href="#a"/>
        </mask>
        <use fill="#D8D8D8" xlink:href="#a"/>
        <g fill-rule="nonzero" mask="url(#b)">
            <path fill="#57595B" d="M64.176 94.948l12.644-5.872.838 1.128-9.729 9.768z"/>
            <path fill="#46484C" d="M77.129 88.574l.816 1.137 2.631-2.857z"/>
            <path fill="#FF9203" d="M-43.779 172.907l108.16-78.454 3.858 5.317-108.16 78.455z"/>
            <path fill="#F4F4F4" d="M1366 111.663l-65.63-136.22c-1.883-3.903-6.577-5.544-10.487-3.665l-123.426 59.254a7.848 7.848 0 0 0-4.013 4.473 7.832 7.832 0 0 0 .331 5.996l86.818 180.055a7.841 7.841 0 0 0 4.48 4.004 7.858 7.858 0 0 0 6.005-.34L1366 174.41v-62.747z"/>
            <path fill="#46484C" d="M1366 133.762l-69.122-144.616-120.579 58.367 77.089 161.296L1366 154.305z"/>
            <path fill="#E5E5E5" d="M1313.135 189.595a5.257 5.257 0 0 1 2.453-7.008 5.237 5.237 0 0 1 6.995 2.456 5.257 5.257 0 0 1-2.448 7.01 5.232 5.232 0 0 1-4.009.225 5.245 5.245 0 0 1-2.991-2.683z"/>
            <path fill="#46484C" d="M1230.778 10.303a1.434 1.434 0 0 1 .666-1.913 1.428 1.428 0 0 1 1.909.667 1.434 1.434 0 0 1-.665 1.913 1.427 1.427 0 0 1-1.91-.667z"/>
            <path fill="#282828" d="M1366 152.761l-112.756 54.214-77.03-160.069 120.327-57.847L1366 133.415v-1.5L1296.84-11.81l-121.494 58.415 77.587 161.248L1366 153.49z"/>
            <path fill="#F4F4F4" d="M790.384 3.612a9.347 9.347 0 0 0 1.453-6.991 9.324 9.324 0 0 0-3.904-5.972l-42.5-29.037c-4.252-2.89-10.031-1.79-12.934 2.46L659.616 71.369a9.347 9.347 0 0 0-1.453 6.991 9.324 9.324 0 0 0 3.904 5.971l42.5 29.051c4.25 2.898 10.036 1.798 12.934-2.459L790.384 3.556v.056z"/>
            <path fill="#46484C" d="M667.356 63.022l61.088-90.515L780.546 7.65 719.46 98.166z"/>
            <path fill="#D1D1D1" d="M684.06 87.3a6.697 6.697 0 1 1 1.763 9.319 6.683 6.683 0 0 1-1.762-9.32z"/>
            <path fill="#E5E5E5" d="M684.836 87.854a5.743 5.743 0 0 1 10.39 2.15 5.744 5.744 0 0 1-8.87 5.823 5.74 5.74 0 0 1-1.52-7.973z"/>
            <g>
                <path fill="#A0A4A5" d="M251.58 159.338l120.164-41.516 2.594 7.514-120.164 41.517z"/>
                <path fill="#E5E5E5" d="M112.892-4.741c-5.341 1.862-8.172 7.705-6.33 13.065l61.251 177.755a10.255 10.255 0 0 0 5.202 5.887 10.217 10.217 0 0 0 7.832.468l110.11-38.11-.075-.215a2.797 2.797 0 0 1 .126-2.135 2.787 2.787 0 0 1 1.598-1.418l37.131-12.883a2.779 2.779 0 0 1 2.13.127c.665.325 1.175.9 1.415 1.602l.065.204 110.751-38.336c5.345-1.853 8.182-7.695 6.34-13.054L416.243-11h-285.24l-18.11 6.259z"/>
                <path fill="#CBCFD1" d="M128.859 4.597a4.205 4.205 0 0 0-2.616 5.34l33.062 95.397a4.228 4.228 0 0 0 5.36 2.596l241.564-83.122a4.208 4.208 0 0 0 2.413-2.133 4.185 4.185 0 0 0 .192-3.208L398.274-11H174.218L128.859 4.597z"/>
                <path fill="#E2E2E2" stroke="#CBCFD1" stroke-width="1.21" d="M352.521 118.146c1.046 3.063-.59 6.39-3.662 7.453l-78.78 27.053c-3.081 1.033-6.424-.591-7.498-3.641l-19.03-54.66c-1.04-3.062.594-6.386 3.662-7.453l78.78-27.042c3.081-1.04 6.428.586 7.497 3.641l19.031 54.649z"/>
                <path fill="#46484C" d="M151.92 17.977a1.96 1.96 0 0 0-.99-1.133 1.925 1.925 0 0 0-1.492-.09l-10.673 3.711a1.983 1.983 0 0 0-1.209 2.51l3.565 10.452a1.95 1.95 0 0 0 2.481 1.223l10.64-3.722a1.983 1.983 0 0 0 1.21-2.51l-3.533-10.44zM168.098 12.258a1.96 1.96 0 0 0-.99-1.134 1.927 1.927 0 0 0-1.492-.09l-10.645 3.712a1.964 1.964 0 0 0-1.13 1.021 1.997 1.997 0 0 0-.069 1.53l3.545 10.41a1.951 1.951 0 0 0 2.482 1.223l10.645-3.721a1.983 1.983 0 0 0 1.21-2.51l-3.556-10.441zM184.264 6.539a1.94 1.94 0 0 0-2.473-1.226l-10.65 3.677a1.99 1.99 0 0 0-1.178 2.516l3.568 10.478a1.951 1.951 0 0 0 2.483 1.226l10.65-3.73a1.99 1.99 0 0 0 1.189-2.516l-3.589-10.425zM201.412-.14a1.95 1.95 0 0 0-2.48-1.22l-10.609 3.736a1.98 1.98 0 0 0-1.209 2.506l3.575 10.435a1.95 1.95 0 0 0 2.48 1.22l10.63-3.715c.49-.169.894-.528 1.12-.998.227-.47.26-1.013.089-1.507L201.412-.139zM217.647-5.866a1.95 1.95 0 0 0-2.44-1.226l-10.682 3.72a1.99 1.99 0 0 0-1.209 2.515L206.88 9.62a1.949 1.949 0 0 0 2.482 1.194l10.64-3.73a1.99 1.99 0 0 0 1.21-2.516l-3.565-10.434zM182.383 24.638a1.95 1.95 0 0 0-2.44-1.225L169.26 27.12c-.49.17-.894.53-1.119 1.003a1.984 1.984 0 0 0-.08 1.512l3.565 10.462a1.95 1.95 0 0 0 2.482 1.225l10.643-3.729a1.978 1.978 0 0 0 1.198-2.503l-3.565-10.452zM198.579 18.928a1.952 1.952 0 0 0-2.483-1.223l-10.65 3.722a1.983 1.983 0 0 0-1.188 2.51l3.577 10.443a1.952 1.952 0 0 0 2.484 1.223l10.638-3.711a1.954 1.954 0 0 0 1.109-1.006c.223-.471.252-1.012.08-1.504l-3.567-10.454zM214.787 14.162a1.95 1.95 0 0 0-2.481-1.223l-10.64 3.722a1.983 1.983 0 0 0-1.21 2.509l3.576 10.442c.167.496.523.904.989 1.133.465.23 1.003.262 1.492.09l10.64-3.712a1.983 1.983 0 0 0 1.198-2.509l-3.564-10.452zM231.937 8.448a1.97 1.97 0 0 0-.998-1.139c-.47-.23-1.01-.26-1.501-.084l-10.617 3.721a1.95 1.95 0 0 0-1.12 1 1.989 1.989 0 0 0-.087 1.51l3.56 10.439a1.947 1.947 0 0 0 2.478 1.222L234.3 21.46a1.983 1.983 0 0 0 1.207-2.509l-3.57-10.503zM248.142 2.723A1.951 1.951 0 0 0 245.66 1.5l-10.644 3.724c-.489.17-.89.532-1.115 1.003a1.989 1.989 0 0 0-.084 1.507l3.565 10.437c.168.497.524.905.99 1.135.466.23 1.003.262 1.493.089l10.644-3.713a1.985 1.985 0 0 0 1.199-2.51l-3.566-10.449zM264.33-2.971a1.951 1.951 0 0 0-2.47-1.255L251.226-.503c-.49.169-.895.529-1.122 1a1.988 1.988 0 0 0-.088 1.51l3.565 10.445c.168.496.524.905.99 1.134.466.23 1.003.262 1.492.09l10.643-3.713a1.984 1.984 0 0 0 1.21-2.489L264.33-2.97zM280.554-8.714a1.959 1.959 0 0 0-.986-1.134c-.465-.23-1-.262-1.489-.09l-10.656 3.712a1.985 1.985 0 0 0-1.207 2.51l3.566 10.451a1.945 1.945 0 0 0 2.476 1.223l10.646-3.732c.49-.17.892-.53 1.118-1a1.992 1.992 0 0 0 .088-1.51l-3.556-10.43zM191.895 38.947a1.948 1.948 0 0 0-2.48-1.223l-10.62 3.722c-.49.17-.894.53-1.12 1a1.99 1.99 0 0 0-.089 1.51l3.562 10.443a1.948 1.948 0 0 0 2.479 1.223l10.632-3.712a1.962 1.962 0 0 0 1.135-1.018 2 2 0 0 0 .073-1.534l-3.572-10.411zM208.074 34.18a1.943 1.943 0 0 0-2.474-1.222l-10.61 3.721c-1.014.357-1.553 1.48-1.205 2.51l3.565 10.441c.166.496.521.904.986 1.134.464.23 1 .261 1.488.089l10.661-3.71c1.01-.362 1.544-1.483 1.195-2.51l-3.606-10.452zM224.267 28.46a1.95 1.95 0 0 0-2.481-1.222l-10.597 3.738c-.488.171-.89.532-1.114 1.002a1.983 1.983 0 0 0-.084 1.505l3.563 10.43c.168.495.524.902.99 1.131.465.23 1.002.262 1.491.09l10.639-3.707a1.98 1.98 0 0 0 1.209-2.506l-3.616-10.462zM241.473 22.74a1.951 1.951 0 0 0-2.482-1.222l-10.643 3.718a1.98 1.98 0 0 0-1.21 2.496l3.566 10.432c.16.501.514.916.98 1.152a1.928 1.928 0 0 0 1.502.101l10.642-3.707a1.98 1.98 0 0 0 1.21-2.507l-3.565-10.463zM257.673 17.018a1.95 1.95 0 0 0-.99-1.132 1.916 1.916 0 0 0-1.492-.08l-10.635 3.711c-.491.17-.895.53-1.122 1a1.987 1.987 0 0 0-.088 1.51l3.566 10.444c.167.496.523.904.99 1.134.466.23 1.003.262 1.493.09l10.634-3.691a1.984 1.984 0 0 0 1.21-2.51l-3.566-10.476zM273.866 11.293a1.94 1.94 0 0 0-2.47-1.213l-10.642 3.713a1.984 1.984 0 0 0-1.209 2.51l3.565 10.458c.169.494.526.9.992 1.127a1.925 1.925 0 0 0 1.49.085l10.64-3.712a1.984 1.984 0 0 0 1.209-2.511l-3.575-10.457zM291.025 5.583a1.953 1.953 0 0 0-2.483-1.223l-10.65 3.722a1.973 1.973 0 0 0-1.19 2.499l3.568 10.453a1.953 1.953 0 0 0 2.483 1.223l10.651-3.722a1.983 1.983 0 0 0 1.19-2.51l-3.569-10.442zM307.255-.136a1.954 1.954 0 0 0-2.485-1.224l-10.658 3.724c-.489.17-.891.528-1.118.997a1.987 1.987 0 0 0-.093 1.503l3.58 10.46a1.954 1.954 0 0 0 2.454 1.223l10.658-3.724c.49-.171.891-.532 1.116-1.004a1.987 1.987 0 0 0 .085-1.507L307.255-.136zM323.425-5.857a1.95 1.95 0 0 0-2.48-1.223l-10.64 3.722c-.488.172-.89.533-1.114 1.004a1.988 1.988 0 0 0-.084 1.506l3.553 10.443a1.95 1.95 0 0 0 2.481 1.223l10.65-3.69c.488-.17.89-.528 1.116-.996.227-.47.26-1.01.093-1.503l-3.575-10.486zM174.706 45.655c-.358-1.056-1.484-1.618-2.518-1.255l-22.92 8.101c-1.032.367-1.58 1.519-1.227 2.577L151.66 65.8c.17.51.53.928 1.003 1.164a1.933 1.933 0 0 0 1.515.092l22.92-8.102c1.032-.366 1.58-1.518 1.226-2.577l-3.617-10.722zM188.992 58.043a2 2 0 0 0-1.006-1.158 1.952 1.952 0 0 0-1.518-.09l-31.482 11.034c-.499.173-.909.541-1.138 1.023a2.027 2.027 0 0 0-.082 1.54l3.627 10.677a2 2 0 0 0 1.009 1.152 1.952 1.952 0 0 0 1.515.086l31.471-11.035c1.036-.364 1.586-1.51 1.23-2.563l-3.626-10.666zM205.258 53.248a1.95 1.95 0 0 0-2.482-1.225l-10.64 3.705a1.987 1.987 0 0 0-1.21 2.513l3.565 10.455a1.95 1.95 0 0 0 2.481 1.225l10.641-3.716a1.987 1.987 0 0 0 1.21-2.513l-3.565-10.444zM222.381 47.52a1.94 1.94 0 0 0-2.45-1.223l-10.638 3.723c-.49.169-.894.529-1.121 1a1.989 1.989 0 0 0-.088 1.51l3.563 10.445c.168.497.524.905.99 1.135.465.23 1.002.261 1.492.089l10.639-3.713a1.984 1.984 0 0 0 1.209-2.51L222.38 47.52zM237.661 41.754a1.948 1.948 0 0 0-2.481-1.163l-10.641 3.67c-1.018.358-1.558 1.484-1.21 2.517l3.565 10.486a1.949 1.949 0 0 0 2.482 1.216l10.64-3.723c1.018-.358 1.558-1.483 1.21-2.517l-3.565-10.486zM254.815 36.078a1.95 1.95 0 0 0-2.481-1.213l-10.64 3.713a1.984 1.984 0 0 0-1.21 2.51l3.575 10.458c.17.494.526.9.992 1.127a1.924 1.924 0 0 0 1.49.085l10.64-3.66a1.985 1.985 0 0 0 1.198-2.51l-3.564-10.51zM271.06 30.37a1.97 1.97 0 0 0-1.01-1.141 1.936 1.936 0 0 0-1.514-.07l-10.64 3.71a1.983 1.983 0 0 0-1.21 2.51l3.575 10.45a1.94 1.94 0 0 0 2.471 1.213l10.64-3.711a1.983 1.983 0 0 0 1.21-2.51l-3.523-10.45zM288.166 24.689a1.962 1.962 0 0 0-.978-1.16 1.923 1.923 0 0 0-1.503-.106l-10.636 3.713a1.985 1.985 0 0 0-1.208 2.51l3.573 10.457c.167.496.523.904.99 1.132a1.913 1.913 0 0 0 1.49.081l10.647-3.67c.489-.173.89-.537 1.112-1.01a1.99 1.99 0 0 0 .076-1.511l-3.563-10.436zM303.423 18.928a1.95 1.95 0 0 0-2.482-1.223L290.3 21.427a1.984 1.984 0 0 0-1.21 2.51l3.555 10.443a1.95 1.95 0 0 0 2.482 1.223l10.653-3.733a1.994 1.994 0 0 0 1.209-2.51l-3.565-10.432zM320.565 13.209a1.95 1.95 0 0 0-2.48-1.223l-10.63 3.722c-.49.169-.893.529-1.12 1a1.988 1.988 0 0 0-.088 1.51l3.563 10.442a1.95 1.95 0 0 0 2.482 1.223l10.639-3.711a1.984 1.984 0 0 0 1.209-2.51l-3.575-10.453zM330.322 27.521c-.352-1.04-1.458-1.592-2.474-1.235l-14.68 5.188c-1.015.36-1.554 1.494-1.206 2.535l4.3 12.75c.351 1.04 1.458 1.592 2.474 1.235l14.68-5.188c.488-.17.89-.534 1.117-1.01a2.032 2.032 0 0 0 .088-1.525l-4.299-12.75zM227.396 62.793c-.352-1.04-1.459-1.593-2.475-1.236l-14.681 5.18c-1.015.36-1.554 1.494-1.206 2.535l4.3 12.765c.168.5.524.91.989 1.139.464.23.999.26 1.485.086l14.681-5.18c1.015-.36 1.554-1.494 1.206-2.535l-4.3-12.754zM309.28 35.135a1.986 1.986 0 0 0-2.517-1.224l-76.49 26.307a1.99 1.99 0 0 0-1.226 2.512l4.374 12.637a1.97 1.97 0 0 0 2.518 1.224l76.49-26.36a1.968 1.968 0 0 0 1.226-2.501l-4.374-12.595zM347.417 22.724a1.984 1.984 0 0 0-2.51-1.207l-10.751 3.663a1.96 1.96 0 0 0-1.134.987 1.918 1.918 0 0 0-.09 1.49l4.36 12.458c.17.49.53.892 1.001 1.119a1.991 1.991 0 0 0 1.51.088l10.75-3.663a1.946 1.946 0 0 0 1.224-2.477l-4.36-12.458zM207.322 70.446a2.022 2.022 0 0 0-1.012-1.17 1.914 1.914 0 0 0-1.516-.083l-10.737 3.836a1.988 1.988 0 0 0-1.132 1.034 2.098 2.098 0 0 0-.089 1.56l4.354 13.046c.17.513.529.935 1 1.172.47.238 1.012.27 1.507.092l10.737-3.835a1.998 1.998 0 0 0 1.15-1.039 2.11 2.11 0 0 0 .092-1.577l-4.354-13.036zM173.964 81.827a1.984 1.984 0 0 0-2.51-1.207l-10.751 3.663a1.96 1.96 0 0 0-1.134.987 1.918 1.918 0 0 0-.09 1.49l4.36 12.458c.17.49.53.892 1.001 1.119a1.991 1.991 0 0 0 1.51.088l10.75-3.61a1.946 1.946 0 0 0 1.224-2.478l-4.36-12.51zM190.12 76.108a1.984 1.984 0 0 0-2.51-1.208l-10.718 3.665a1.947 1.947 0 0 0-1.212 2.478l4.36 12.454c.169.49.529.893 1 1.12a1.99 1.99 0 0 0 1.51.088l10.76-3.654c.494-.17.9-.526 1.127-.991.227-.465.258-1 .085-1.488l-4.402-12.464zM366.18 24.618a1.979 1.979 0 0 0-1.047-1.108 2.175 2.175 0 0 0-1.575-.083l-11.235 3.647a2.02 2.02 0 0 0-1.184.983c-.24.463-.274.997-.093 1.484l1.8 4.86c.176.487.553.888 1.045 1.114.492.226 1.06.257 1.577.088l11.235-3.648a2.02 2.02 0 0 0 1.178-.986c.238-.463.27-.996.089-1.48l-1.79-4.87zM399.54 13.177c-.378-1.008-1.55-1.54-2.623-1.192l-11.24 3.648c-1.075.351-1.647 1.454-1.278 2.467l1.79 4.861c.177.488.553.889 1.046 1.115.492.225 1.06.257 1.578.087l11.238-3.648c1.076-.351 1.648-1.454 1.279-2.467l-1.79-4.871zM183.2-4.923c-.373-1.014-1.546-1.553-2.623-1.205l-11.239 3.645c-1.076.352-1.647 1.457-1.278 2.472l1.79 4.86c.373 1.013 1.546 1.552 2.623 1.204l11.24-3.666c1.073-.347 1.646-1.449 1.277-2.461l-1.79-4.85zM166.053.809a1.984 1.984 0 0 0-1.043-1.121 2.193 2.193 0 0 0-1.582-.1L152.186 3.26a2.02 2.02 0 0 0-1.185.981 1.82 1.82 0 0 0-.094 1.48l1.79 4.85c.178.487.554.887 1.047 1.113.492.225 1.06.256 1.578.087l11.242-3.64c.517-.168.94-.522 1.179-.984a1.82 1.82 0 0 0 .089-1.478l-1.78-4.86zM148.886 7.457c-.373-1.006-1.543-1.54-2.616-1.192l-11.264 3.648c-.515.17-.936.527-1.17.99a1.817 1.817 0 0 0-.076 1.477l1.78 4.861c.178.488.554.89 1.048 1.115a2.181 2.181 0 0 0 1.58.088l11.23-3.649c.52-.166.946-.52 1.187-.983.24-.463.274-.997.093-1.484l-1.792-4.871zM379.839 10.393c-.358-1.063-1.48-1.628-2.511-1.263l-10.758 3.833c-.504.177-.919.556-1.15 1.053a2.104 2.104 0 0 0-.073 1.584l4.362 13.04c.362 1.047 1.471 1.6 2.49 1.241l10.757-3.834c1.03-.369 1.577-1.528 1.224-2.592l-4.341-13.062zM336.78 7.486a1.96 1.96 0 0 0-2.48-1.223l-10.633 3.721c-.499.171-.908.538-1.135 1.019a1.999 1.999 0 0 0-.073 1.533l3.561 10.44a1.938 1.938 0 0 0 2.48 1.18l10.633-3.71a1.983 1.983 0 0 0 1.209-2.51l-3.562-10.45zM352.924 1.755A1.95 1.95 0 0 0 350.496.53l-10.64 3.725a1.985 1.985 0 0 0-1.209 2.511l3.575 10.45c.167.497.523.906.989 1.135.466.23 1.003.262 1.492.09l10.629-3.714c.49-.17.894-.53 1.12-1.002a1.99 1.99 0 0 0 .089-1.51l-3.617-10.461zM165.103 31.322a1.988 1.988 0 0 0-2.52-1.224l-19.029 6.55a1.988 1.988 0 0 0-1.233 2.513l3.69 10.47a1.999 1.999 0 0 0 2.53 1.224l19.018-6.528a1.978 1.978 0 0 0 1.233-2.514l-3.69-10.49zM367.827 22.304l14.585-5.042zM239.971-.917c.364 1.052 1.493 1.609 2.527 1.245l10.837-3.812c1.036-.367 1.586-1.52 1.231-2.578L252.896-11h-16.33l3.405 10.083zM283.364-9.743l3.566 9.88c.357.97 1.463 1.485 2.482 1.157l10.643-3.518c.49-.16.894-.5 1.121-.946.227-.445.26-.959.089-1.427L298.95-11h-15.555a1.783 1.783 0 0 0-.032 1.257zM186.463-8.303c-1.063.369-1.617 1.48-1.245 2.497l1.789 4.93c.179.49.556.894 1.048 1.12a2.151 2.151 0 0 0 1.575.085l11.234-3.692a2.027 2.027 0 0 0 1.185-.995c.24-.468.274-1.009.093-1.501l-1.822-4.919a1.372 1.372 0 0 0-.1-.222h-5.556l-8.201 2.697zM220.754-8.445c-.493.167-.902.53-1.136 1.01a2.074 2.074 0 0 0-.104 1.545L223.089 4.8c.353 1.052 1.462 1.611 2.482 1.25l10.631-3.805c.49-.171.893-.537 1.12-1.017.228-.48.26-1.034.09-1.539L233.877-11h-5.805l-7.319 2.555zM326.514-9.077a1.982 1.982 0 0 0-1.209 2.508l3.565 10.445a1.95 1.95 0 0 0 2.481 1.222l10.641-3.719c.488-.169.89-.527 1.117-.995.226-.468.26-1.009.092-1.502L339.826-11h-7.812l-5.5 1.923zM357.034-1.509a1.985 1.985 0 0 0-1.23 2.52l3.638 10.495a1.98 1.98 0 0 0 2.514 1.217l31.476-10.847a1.985 1.985 0 0 0 1.23-2.52L391.09-11h-6.515l-27.54 9.491z"/>
            </g>
            <g>
                <path fill="#46484C" d="M174.87 400.95a9.076 9.076 0 0 1-11.218 6.281l-183.297-51.961a9.113 9.113 0 0 1-6.27-11.242l39.108-138.766c1.367-4.834 6.386-7.644 11.218-6.28l183.284 51.965c4.83 1.374 7.64 6.401 6.283 11.238L174.87 400.951z"/>
                <path fill="#F4E9CE" d="M173.257 399.467a9.092 9.092 0 0 1-4.314 5.458 9.11 9.11 0 0 1-6.913.817l-178.616-50.3a9.072 9.072 0 0 1-5.47-4.302 9.054 9.054 0 0 1-.806-6.908l38.85-136.852c1.373-4.821 6.396-7.628 11.227-6.275l178.62 50.312a9.059 9.059 0 0 1 5.467 4.297 9.042 9.042 0 0 1 .805 6.901l-38.85 136.852z"/>
                <path fill="#D3C9B2" d="M210.734 266.931L13.598 211.08l.111-.384 197.136 55.852zM-9.978 295.886l196.225 55.595zM189.226 343.191l-197.133-55.84.108-.396 197.132 55.84zM190.01 335.983l-197.132-55.84.107-.396L190.122 335.6zM-3.418 272.647l196.225 55.595zM-1.24 264.893l196.226 55.595zM.95 257.149l196.224 55.595zM3.135 249.417l196.225 55.595zM5.334 241.675l196.225 55.596zM7.512 233.922l196.225 55.595zM9.699 226.184l196.225 55.595zM11.36 218.29l196.003 55.33z"/>
                <path fill="#D3C9B2" d="M189.226 343.191l-197.133-55.84.108-.396 197.132 55.84zM174.271 398.533l-197.132-55.84.107-.395 197.133 55.84zM-20.903 334.593l196.225 55.595zM-18.717 326.86l196.225 55.596zM-16.543 319.12l196.225 55.594zM181.698 367.394l-197.145-55.836.107-.396 197.133 55.84zM184.292 359.632L-12.845 303.78l.1-.38 197.148 55.848zM-22.247 350.695l189.991 53.816.536-.258-190.838-54.051zM16.46 204.15l195.182 55.535c-.041-.135-.086-.282-.042-.443L16.74 203.796l-.28.354z"/>
                <path fill="#46484C" d="M151.028 403.357l44.198-156.388 5.8 1.645-44.198 156.388zM72.48 380.263l44.088-155.58z"/>
            </g>
            <g>
                <path fill="#F9F0E8" d="M984.89 106.933a51.499 51.499 0 1 1 54.04-48.745c-1.483 28.373-25.665 50.185-54.04 48.745z"/>
                <path fill="#F4E3D3" d="M985.402 105.98c-27.609-1.422-48.84-24.951-47.428-52.56 1.412-27.61 24.934-48.85 52.544-47.447 27.61 1.403 48.857 24.918 47.463 52.528a50.069 50.069 0 0 1-52.58 47.479z"/>
                <path fill="#E8D4C4" d="M987.431 96.458c-21.04-1.091-37.21-19.032-36.12-40.072 1.091-21.04 19.031-37.211 40.07-36.121 21.04 1.09 37.212 19.03 36.123 40.07a38.148 38.148 0 0 1-40.073 36.123z"/>
                <path fill="#FFFBF8" d="M985.569 94.552a38.147 38.147 0 1 1 40.028-36.123c-1.09 21.023-19.004 37.19-40.028 36.123z"/>
                <path fill="#F9F0E8" d="M986.116 92.646a36.717 36.717 0 1 1 38.53-34.779c-1.044 20.24-18.29 35.807-38.53 34.78z"/>
                <path fill="#DBB99A" d="M985.43 86.93a30.995 30.995 0 1 1 32.547-29.352 30.984 30.984 0 0 1-32.547 29.353z"/>
                <path fill="#F9F0E8" d="M1009.435 88.44l7.425 8.651a3.742 3.742 0 0 0 2.603 1.318 3.718 3.718 0 0 0 2.745-.967l2.156-1.929c1.568-1.423 1.721-3.878.342-5.495l-7.527-8.768a40.067 40.067 0 0 1-7.744 7.19z"/>
                <path fill="#EDCEAF" d="M985.965 87.887a30.518 30.518 0 1 1 32.01-28.857c-.894 16.797-15.21 29.703-32.01 28.857z"/>
            </g>
            <g>
                <path fill="#57595B" d="M1217.941 256.464L1114.725 225 1063 397.164l103.217 31.465c4.521 1.377 9.295-1.198 10.665-5.752l46.768-155.736c1.323-4.534-1.223-9.296-5.709-10.677z"/>
                <path fill="#F3AD0C" d="M1082.467 334.383l12.672-42.198 111.503 34.016-12.672 42.198z"/>
                <path fill="#46484C" d="M1156.125 425.143l51.91-172.417 5.271 1.612-51.909 172.417z"/>
            </g>
            <g>
                <path fill="#46484C" d="M1056.74 249.285l-2.244.512c-1.061.229-1.613 1.736-1.846 2.475-.232.738 1.877 16.438 3.086 21.443 1.208 5.004 6.188 25.808 6.533 25.923.346.114 1.986.757 2.365-.362.38-1.119.41-6.892-1.048-7.447a5.733 5.733 0 0 1-3.239-4.923c-.285-2.646-5.662-31.877-5.26-33.333a2.12 2.12 0 0 1 2.217-1.641 2.567 2.567 0 0 0-.564-2.647z"/>
                <path fill="#57595B" d="M1067.785 245.631c-2.31-8.598-8.453-7.4-8.453-7.4s-6.059 1.607-4.578 10.395c1.481 8.787 5.656 30.053 7.02 36.361 1.363 6.309 6.778 27.107 6.778 27.107l6.53-1.496 6.514-1.503s-3.725-21.174-5.132-27.482c-1.406-6.307-6.368-27.384-8.679-35.982z"/>
                <path fill="#E5E5E5" d="M1065.995 304.883c1.183 4.434 2.055 7.675 2.055 7.675l6.511-1.391 6.493-1.401s-.645-3.289-1.537-7.792l-13.522 2.909zM1066.784 304.477l13.627-3.182a744.87 744.87 0 0 1-.423-2.358l-13.785 3.223c.2.792.397 1.572.581 2.317zM1054.49 249.945c.077.226.08.503.125.752l12.11-2.78-.249-.723a14.051 14.051 0 0 0-.58-1.682l-11.664 2.678c.052.59.138 1.176.258 1.755z"/>
                <path fill="#57595B" d="M1080.548 363.044l-11.314-50.839 12.375-2.787 11.313 50.839z"/>
                <path fill="#E5E5E5" d="M1085.382 382.79c-1.663-4.83-5.86-19.526-5.86-19.526l13.183-3.093s2.13 15.196 2.614 20.339c.484 5.143-8.27 7.122-9.937 2.28z"/>
            </g>
            <g>
                <path fill="#FC7070" d="M255.01 253.688c-.29.489-.925.665-1.425.395l-42.887-23.756a1.005 1.005 0 0 1-.515-.59 1.005 1.005 0 0 1 .07-.782l9.428-16.281a1.044 1.044 0 0 1 1.413-.392l42.929 23.756a1.003 1.003 0 0 1 .383 1.392l-9.396 16.258z"/>
                <path fill="#E56167" d="M245.962 247.586a1.07 1.07 0 0 1-1.403.456l-42.848-23.797a1.007 1.007 0 0 1-.515-.592 1.007 1.007 0 0 1 .069-.78l9.407-16.28a1.041 1.041 0 0 1 1.411-.391l42.941 23.699a1.005 1.005 0 0 1 .371 1.397l-9.433 16.288z"/>
            </g>
            <g>
                <path fill="#F4E9CE" d="M265.412 265.042l7.527-13.341 1.534.533-2.22 15.2z"/>
                <path fill="#FFB81A" d="M270.41 266.87l-47.99 138.917 1.731.589 47.99-138.918s-.002-2.106-.224-2.182c-.221-.076-1.507 1.594-1.507 1.594zM265.077 265.19L217.1 404.023l1.796.615 48.026-138.874s-.045-2.123-.282-2.2c-.237-.076-1.563 1.628-1.563 1.628z"/>
                <path fill="#46484C" d="M273.193 252.213l1.442.536.446-4.172z"/>
                <path fill="#FFB81A" d="M270.067 267.396l-47.249 138.877-3.587-1.25L266.52 266.11s1.73-1.503 2.411-1.27c.683.232 1.136 2.556 1.136 2.556z"/>
            </g>
        </g>
    </g>
</svg>
