<svg xmlns="http://www.w3.org/2000/svg" width="24" height="24" viewBox="0 0 24 24">
    <g fill="none" fill-rule="evenodd">
        <rect width="567" height="452" x="-146" y="-275" stroke="#FFF" stroke-width="4" rx="52"/>
        <path fill="#0078BF" d="M21.167 3c.504 0 .935.184 1.294.55.36.368.539.81.539 1.325v14.25c0 .516-.18.957-.539 1.324-.359.367-.79.551-1.294.551H2.833c-.504 0-.935-.184-1.294-.55A1.826 1.826 0 0 1 1 19.124V4.875c0-.516.18-.957.539-1.324.359-.367.79-.551 1.294-.551h18.334zM2.365 5a.347.347 0 0 0-.257.111.365.365 0 0 0-.108.264V8h19V5.375a.365.365 0 0 0-.108-.264.347.347 0 0 0-.257-.111H2.365zm18.27 14c.099 0 .184-.04.257-.119A.403.403 0 0 0 21 18.6V11H2v7.6c0 .108.036.202.108.281.073.08.158.119.257.119h18.27zM3 18v-2h3v2H3zm4 0v-2h5v2H7z"/>
    </g>
</svg>
