<svg xmlns="http://www.w3.org/2000/svg" width="24" height="24" viewBox="0 0 24 24">
    <g fill="none" fill-rule="evenodd">
        <rect width="567" height="452" x="-418" y="-314" stroke="#FFF" stroke-width="4" rx="52"/>
        <path fill="#0078BF" d="M19.5 1H5.75c-1.013 0-1.833.82-1.833 1.833v1.834h-.459a.458.458 0 1 0 0 .916h1.834a.458.458 0 0 1 0 .917H3.917v2.75h-.459a.458.458 0 1 0 0 .917h1.834a.458.458 0 1 1 0 .916H3.917v2.75h-.459a.458.458 0 0 0 0 .917h1.834a.458.458 0 1 1 0 .917H3.917v2.75h-.459a.458.458 0 1 0 0 .916h1.834a.458.458 0 0 1 0 .917H3.917v.917c0 1.012.82 1.833 1.833 1.833H19.5c1.013 0 1.833-.82 1.833-1.833V2.833C21.333 1.821 20.513 1 19.5 1zm-6.417 6.417a2.292 2.292 0 1 1 0 4.583 2.292 2.292 0 0 1 0-4.583zm4.125 8.103a1.027 1.027 0 0 1-.98 1.063H9.938a1.027 1.027 0 0 1-.98-1.063v-.293c-.017-.743.36-1.44.99-1.834a6.362 6.362 0 0 1 3.134-.916 6.362 6.362 0 0 1 3.135.916c.63.394 1.006 1.09.99 1.834v.293z"/>
    </g>
</svg>
