<svg xmlns="http://www.w3.org/2000/svg" width="24" height="24" viewBox="0 0 24 24">
    <g fill="none" fill-rule="evenodd">
        <rect width="567" height="452" x="-497" y="-315" stroke="#FFF" stroke-width="4" rx="52"/>
        <path fill="#0078BF" d="M13.111 20.913v-1.135h7.806c.722 0 1.083-.362 1.083-1.087 0-.724-.361-1.103-1.083-1.135H13.11V16.45c0-.745-.361-1.118-1.085-1.118-.723 0-1.102.373-1.137 1.118v4.462c-.008.725.36 1.087 1.105 1.087s1.117-.362 1.117-1.087zm2.222-13.335c.013.726.386 1.089 1.12 1.089.735 0 1.103-.363 1.103-1.089V6.444h3.389c.703 0 1.055-.362 1.055-1.086 0-.724-.352-1.102-1.055-1.136h-3.39v-1.11c0-.741-.37-1.112-1.11-1.112-.739 0-1.11.37-1.112 1.112v4.466zm-6.666 6.667c-.013.726-.386 1.088-1.12 1.088-.735 0-1.103-.362-1.103-1.088V13.11H3.055C2.352 13.111 2 12.75 2 12.025c0-.724.352-1.103 1.055-1.136h3.39v-1.11c0-.742.37-1.112 1.11-1.112.739 0 1.11.37 1.112 1.112v4.466zM2.995 4.222h9.121c.55 0 .995.446.995.995v.221c0 .55-.445.995-.995.995H2.995A.995.995 0 0 1 2 5.438v-.22c0-.55.445-.996.995-.996zm8.889 6.667h9.121c.55 0 .995.445.995.995v.221c0 .55-.445.995-.995.995h-9.121a.995.995 0 0 1-.995-.995v-.221c0-.55.445-.995.995-.995zm-8.889 6.678h4.677c.55 0 .995.445.995.995v.22c0 .55-.446.996-.995.996H2.995A.995.995 0 0 1 2 18.783v-.221c0-.55.445-.995.995-.995z"/>
    </g>
</svg>
