<svg xmlns="http://www.w3.org/2000/svg" width="24" height="24" viewBox="0 0 24 24">
    <g fill="none" fill-rule="evenodd">
        <rect width="567" height="452" x="-457" y="-314" stroke="#FFF" stroke-width="4" rx="52"/>
        <path fill="#0078BF" d="M12 12.417a3.212 3.212 0 0 1-3.208-3.209C8.792 7.44 10.23 6 12 6c1.77 0 3.208 1.44 3.208 3.208 0 1.77-1.439 3.209-3.208 3.209zm4.927 2.229a2.752 2.752 0 0 1 1.49 2.45v.42c0 .727-.588 1.317-1.31 1.317H6.893c-.722 0-1.31-.59-1.31-1.317v-.42c0-1.035.571-1.974 1.49-2.45 1.154-.599 2.945-1.313 4.927-1.313 1.982 0 3.773.714 4.927 1.313zM5.125 10.583a2.294 2.294 0 0 1-2.292-2.291A2.294 2.294 0 0 1 5.125 6a2.294 2.294 0 0 1 2.292 2.292 2.294 2.294 0 0 1-2.292 2.291zm13.75 0a2.294 2.294 0 0 1-2.292-2.291A2.294 2.294 0 0 1 18.875 6a2.294 2.294 0 0 1 2.292 2.292 2.294 2.294 0 0 1-2.292 2.291zm3.135 1.404c.61.361.99 1.06.99 1.826v.294c0 .584-.44 1.06-.982 1.06h-2.994a.459.459 0 0 1-.374-.193 3.634 3.634 0 0 0-1.3-1.142 13.732 13.732 0 0 0-1.82-.782.458.458 0 0 1-.177-.754c.127-.13.254-.23.387-.31.732-.43 1.87-.944 3.135-.944 1.264 0 2.402.513 3.135.945zM6.652 13.83a3.643 3.643 0 0 0-1.302 1.143.459.459 0 0 1-.374.193H1.982c-.542 0-.982-.476-.982-1.06v-.294c0-.765.38-1.465.99-1.826.732-.431 1.87-.945 3.135-.945 1.264 0 2.403.514 3.135.945.131.077.258.18.387.309a.455.455 0 0 1-.177.754 13.79 13.79 0 0 0-1.818.781z"/>
    </g>
</svg>
