<svg xmlns="http://www.w3.org/2000/svg" width="24" height="24" viewBox="0 0 24 24">
    <g fill="none" fill-rule="evenodd">
        <rect width="567" height="452" x="-185" y="-275" stroke="#FFF" stroke-width="4" rx="52"/>
        <path fill="#0078BF" d="M11.878 4.867h.917a.458.458 0 0 0 0-.917h-.917a.458.458 0 0 0 0 .917zM17.833 1h-11C5.821 1 5 1.82 5 2.833v18.334C5 22.179 5.82 23 6.833 23h11c1.013 0 1.834-.82 1.834-1.833V2.833c0-1.012-.821-1.833-1.834-1.833zm-4.125 20.167h-2.75a.458.458 0 0 1 0-.917h2.75a.458.458 0 1 1 0 .917zM18 8.958v9.625H7V3h11v5.958z"/>
    </g>
</svg>
