<svg xmlns="http://www.w3.org/2000/svg" xmlns:xlink="http://www.w3.org/1999/xlink" width="24" height="24" viewBox="0 0 24 24">
    <defs>
        <path id="a" d="M12 5.882c2.402 0 4.473 1.75 4.94 4.167l.276 1.411 1.402.104c1.43.094 2.549 1.326 2.549 2.785 0 1.552-1.238 2.822-2.75 2.822H6.5c-2.026 0-3.667-1.684-3.667-3.763 0-1.929 1.403-3.537 3.264-3.735l.98-.104.459-.893c.87-1.722 2.576-2.794 4.464-2.794zM12 4C9.35 4 7.05 5.543 5.904 7.8 3.145 8.103 1 10.5 1 13.409c0 3.114 2.466 5.645 5.5 5.645h11.917c2.53 0 4.583-2.108 4.583-4.704 0-2.484-1.88-4.497-4.262-4.667C18.114 6.437 15.337 4 12 4z"/>
    </defs>
    <g fill="none" fill-rule="evenodd">
        <rect width="567" height="452" x="-185" y="-314" stroke="#FFF" stroke-width="4" rx="52"/>
        <use fill="#0078BF" xlink:href="#a"/>
    </g>
</svg>
