<svg xmlns="http://www.w3.org/2000/svg" width="24" height="24" viewBox="0 0 24 24">
    <g fill="none" fill-rule="evenodd">
        <path fill="#0078BF" d="M22.324 9.324l-1.986-.497a9.154 9.154 0 0 0-.37-.903l1.056-1.751a.451.451 0 0 0-.073-.55l-2.925-2.917a.451.451 0 0 0-.55-.072l-1.76 1.074a9.1 9.1 0 0 0-.903-.37l-.47-1.995A.451.451 0 0 0 13.91 1H9.757a.451.451 0 0 0-.433.343L8.827 3.33a9.1 9.1 0 0 0-.876.38l-1.76-1.075a.451.451 0 0 0-.55.072L2.705 5.64a.451.451 0 0 0-.072.551l1.074 1.76c-.139.295-.263.596-.37.903l-1.986.497A.451.451 0 0 0 1 9.757v4.153a.451.451 0 0 0 .343.433l1.986.497c.107.307.231.608.37.902l-1.065 1.734a.451.451 0 0 0 .072.55L5.64 20.96a.451.451 0 0 0 .551.073l1.76-1.075c.295.14.596.263.903.37l.497 1.987a.451.451 0 0 0 .406.352h4.153a.451.451 0 0 0 .433-.343l.497-1.986c.307-.108.608-.231.902-.37l1.752 1.056a.451.451 0 0 0 .55-.073l2.934-2.934a.451.451 0 0 0 .073-.55l-1.093-1.752c.14-.294.263-.595.37-.902l1.987-.497a.451.451 0 0 0 .352-.406V9.757a.451.451 0 0 0-.343-.433zm-10.49 7.926a5.417 5.417 0 1 1 0-10.833 5.417 5.417 0 0 1 0 10.833z"/>
        <rect width="567" height="452" x="-29" y="-236" stroke="#FFF" stroke-width="4" rx="52"/>
    </g>
</svg>
