<svg xmlns="http://www.w3.org/2000/svg" width="24" height="24" viewBox="0 0 24 24">
    <g fill="none" fill-rule="evenodd">
        <path fill="#0078BF" d="M18.667 1H5.833C4.821 1 4 1.82 4 2.833v18.334C4 22.179 4.82 23 5.833 23h12.834c1.012 0 1.833-.82 1.833-1.833V2.833C20.5 1.821 19.68 1 18.667 1zm-12.834.917h12.834c.506 0 .916.41.916.916v15.584a3.355 3.355 0 0 0-1.347-.917l-1.164-.385a2.52 2.52 0 0 1-1.293-.99l-.174-.266a.458.458 0 0 0-.385-.201h-.385l-.23-.917c.5-.594.852-1.298 1.027-2.053.697-.569.78-2.503.78-2.53.006-.391-.12-.772-.358-1.082.207-.411.326-.86.349-1.32l.238-.239a.458.458 0 0 0 .192-.339c0-1.65-1.64-3.428-4.216-3.428a3.474 3.474 0 0 0-2.448.77c-1 .324-1.69 1.24-1.723 2.292v.357c-.027.612-.003 1.226.073 1.833a1.632 1.632 0 0 0-.44 1.165s.083 1.961.78 2.53c.177.756.532 1.46 1.035 2.053l-.229.917H9.28a.458.458 0 0 0-.385.201l-.174.266a2.52 2.52 0 0 1-1.293.99l-1.164.376c-.518.19-.98.505-1.347.917V2.833a.917.917 0 0 1 .916-.916z"/>
        <rect width="567" height="452" x="-303" y="-41" stroke="#FFF" stroke-width="4" rx="52"/>
    </g>
</svg>
