<svg xmlns="http://www.w3.org/2000/svg" xmlns:xlink="http://www.w3.org/1999/xlink" width="24" height="24" viewBox="0 0 24 24">
    <defs>
        <path id="a" d="M19.083 8.156H4.917a.472.472 0 0 0-.473.472v12.75c0 1.043.846 1.889 1.89 1.889h11.333a1.889 1.889 0 0 0 1.889-1.89V8.628a.472.472 0 0 0-.473-.471zm-.472-4.723h-2.833V2.49A1.889 1.889 0 0 0 13.888.6h-3.777a1.889 1.889 0 0 0-1.889 1.889v.944H5.39A1.889 1.889 0 0 0 3.5 5.323v1.416c0 .26.211.472.472.472h16.056c.26 0 .472-.211.472-.472V5.322a1.889 1.889 0 0 0-1.889-1.889zm-8.5-.944h3.778v.944H10.11V2.49z"/>
    </defs>
    <g fill="none" fill-rule="evenodd">
        <use fill="#0078BF" xlink:href="#a"/>
        <rect width="567" height="452" x="-419" y="-196" stroke="#FFF" stroke-width="4" rx="52"/>
    </g>
</svg>
