<svg xmlns="http://www.w3.org/2000/svg" width="24" height="24" viewBox="0 0 24 24">
    <g fill="none" fill-rule="evenodd">
        <rect width="567" height="452" x="-107" y="-275" stroke="#FFF" stroke-width="4" rx="52"/>
        <path fill="#0078BF" d="M19.764 15.864A4.09 4.09 0 0 1 22 19.518v.664A1.818 1.818 0 0 1 20.182 22H3.818A1.818 1.818 0 0 1 2 20.182V19.5a4.09 4.09 0 0 1 2.236-3.636A17.482 17.482 0 0 1 12 13.818c2.712.07 5.37.77 7.764 2.046zM12 12.909A5.455 5.455 0 1 1 12 2a5.455 5.455 0 0 1 0 10.91z"/>
    </g>
</svg>
