<svg xmlns="http://www.w3.org/2000/svg" width="23" height="16" viewBox="0 0 23 16">
    <path fill="#0078BF" fill-rule="evenodd" d="M15.854 11.901c.7.285 1.259.738 1.676 1.36.417.623.625 1.326.625 2.108H4.251c0-1.28.45-2.258 1.35-2.934.334-.249 1.15-.534 2.451-.854.8-.106 1.234-.338 1.3-.693.034-.142.05-.551.05-1.227a.375.375 0 0 0-.1-.267c-.133-.142-.266-.391-.4-.747a12.415 12.415 0 0 1-.2-1.28c-.133.035-.241-.018-.325-.16a1.92 1.92 0 0 1-.2-.56 3.637 3.637 0 0 1-.075-.4c-.133-.783-.083-1.156.15-1.12-.1-.143-.183-.48-.25-1.014-.1-.783-.05-1.476.15-2.08A2.802 2.802 0 0 1 9.402.484c.6-.356 1.25-.516 1.951-.48a3.403 3.403 0 0 1 1.826.64c.55.391.925.925 1.125 1.6.167.498.183 1.192.05 2.081-.067.427-.133.694-.2.8.1-.035.175 0 .225.107.05.107.067.24.05.4-.017.16-.033.302-.05.427a1.032 1.032 0 0 1-.075.293l-.1.374c-.033.249-.092.426-.175.533a.287.287 0 0 1-.325.107c-.067.782-.184 1.334-.35 1.654 0 .035-.059.124-.175.266-.117.143-.175.232-.175.267v.587c0 .356.033.622.1.8.066.178.3.32.7.427.233.107.575.196 1.025.267.45.07.792.16 1.025.266zm-10.302-.693h.1-.1zm-.108.067l-.06.04a4.88 4.88 0 0 0-1.033.907c-.167.39-.283.586-.35.586H0c0-1.067.5-1.778 1.5-2.134.034 0 .184-.035.45-.106.267-.071.5-.143.7-.214.2-.07.317-.16.35-.266.034-.107.05-.392.05-.854-.666.071-1.2-.053-1.6-.373l.2-.64c.034-.072.067-.17.1-.294.034-.124.05-.222.05-.293.034-.32.05-.818.05-1.494 0-1.316.134-2.187.4-2.614.367-.64 1-.96 1.901-.96 1.367 0 2.15.658 2.35 1.973.067.32.1.792.1 1.414V7.1c0 .391.084.818.25 1.28.134.285.184.445.15.48l-.3.16c-.166.072-.45.143-.85.214-.266 0-.416.018-.45.053v.587c0 .214.084.338.25.374.067.035.192.07.376.106.183.036.341.08.475.134a.829.829 0 0 1 .3.186c.1.178.067.267-.1.267-.467.071-.817.16-1.05.267h-.05l-.25.107h.05a.747.747 0 0 0 .104-.066.383.383 0 0 0 .046-.041 5.518 5.518 0 0 0-.108.067zm15.412-.6c1.033.355 1.55 1.066 1.55 2.133h-4.001c-.067-.249-.333-.586-.8-1.013-.567-.463-1.034-.73-1.4-.8h-.25a.838.838 0 0 1-.326-.054c-.083-.035-.108-.107-.075-.213.067-.107.284-.214.65-.32.5-.143.767-.267.8-.374v-.747c-.2 0-.5-.035-.9-.106a9.613 9.613 0 0 1-.55-.214c-.133-.07-.133-.266 0-.587.1-.248.184-1.155.25-2.72.067-1.565.517-2.525 1.35-2.881.834-.356 1.634-.302 2.401.16.667.427 1 1.21 1 2.347 0 .143-.008.41-.024.8a22.82 22.82 0 0 0-.025.907c0 .214.033.48.1.8.066.32.166.587.3.8.1.179.1.285 0 .32-.034.037-.084.054-.15.054-.067 0-.117.018-.15.054l-.6.16c-.134.035-.35.053-.65.053 0 .57.016.871.05.907.1.107.233.196.4.267.166.07.358.124.575.16.216.035.375.07.475.106z"/>
</svg>
